<?xml version="1.0" encoding="UTF-8"?>

<svg
xmlns="http://www.w3.org/2000/svg"
viewBox="0 0 1920 1080">

<g
id="network"
stroke="#4AD7FF"
stroke-width="1.2"
stroke-opacity="0.35"
fill="none">

<line x1="220" y1="150" x2="300" y2="180"/>
<line x1="300" y1="180" x2="390" y2="140"/>
<line x1="390" y1="140" x2="480" y2="230"/>
<line x1="480" y1="230" x2="570" y2="260"/>
<line x1="570" y1="260" x2="650" y2="180"/>
<line x1="650" y1="180" x2="760" y2="210"/>
<line x1="760" y1="210" x2="860" y2="150"/>
<line x1="860" y1="150" x2="960" y2="220"/>
<line x1="960" y1="220" x2="1080" y2="170"/>
<line x1="1080" y1="170" x2="1180" y2="250"/>
<line x1="1180" y1="250" x2="1280" y2="180"/>
<line x1="1280" y1="180" x2="1380" y2="260"/>
<line x1="1380" y1="260" x2="1480" y2="160"/>
<line x1="1480" y1="160" x2="1580" y2="230"/>
<line x1="1580" y1="230" x2="1680" y2="200"/>

<line x1="250" y1="380" x2="360" y2="430"/>
<line x1="360" y1="430" x2="470" y2="360"/>
<line x1="470" y1="360" x2="600" y2="410"/>
<line x1="600" y1="410" x2="720" y2="330"/>
<line x1="720" y1="330" x2="820" y2="460"/>
<line x1="820" y1="460" x2="930" y2="360"/>
<line x1="930" y1="360" x2="1030" y2="430"/>
<line x1="1030" y1="430" x2="1140" y2="360"/>
<line x1="1140" y1="360" x2="1260" y2="420"/>
<line x1="1260" y1="420" x2="1370" y2="340"/>
<line x1="1370" y1="340" x2="1490" y2="430"/>
<line x1="1490" y1="430" x2="1600" y2="360"/>
<line x1="1600" y1="360" x2="1700" y2="450"/>

<line x1="300" y1="620" x2="420" y2="540"/>
<line x1="420" y1="540" x2="540" y2="640"/>
<line x1="540" y1="640" x2="670" y2="560"/>
<line x1="670" y1="560" x2="790" y2="650"/>
<line x1="790" y1="650" x2="900" y2="560"/>
<line x1="900" y1="560" x2="1020" y2="650"/>
<line x1="1020" y1="650" x2="1130" y2="570"/>
<line x1="1130" y1="570" x2="1250" y2="640"/>
<line x1="1250" y1="640" x2="1380" y2="560"/>
<line x1="1380" y1="560" x2="1500" y2="640"/>
<line x1="1500" y1="640" x2="1620" y2="560"/>

<line x1="340" y1="840" x2="470" y2="770"/>
<line x1="470" y1="770" x2="610" y2="860"/>
<line x1="610" y1="860" x2="740" y2="760"/>
<line x1="740" y1="760" x2="880" y2="850"/>
<line x1="880" y1="850" x2="1010" y2="760"/>
<line x1="1010" y1="760" x2="1150" y2="860"/>
<line x1="1150" y1="860" x2="1290" y2="770"/>

</g>

</svg>
