<?xml version="1.0" encoding="UTF-8"?>

<svg
xmlns="http://www.w3.org/2000/svg"
viewBox="0 0 1920 1080">

<defs>

<filter id="glow">

<feGaussianBlur stdDeviation="4" result="blur"/>

<feMerge>

<feMergeNode in="blur"/>

<feMergeNode in="SourceGraphic"/>

</feMerge>

</filter>

</defs>

<g
id="nodes"
fill="#6FEAFF"
filter="url(#glow)">

<circle id="node001" cx="220" cy="150" r="4"/>
<circle id="node002" cx="300" cy="180" r="4"/>
<circle id="node003" cx="390" cy="140" r="4"/>
<circle id="node004" cx="480" cy="230" r="4"/>
<circle id="node005" cx="570" cy="260" r="4"/>
<circle id="node006" cx="650" cy="180" r="4"/>
<circle id="node007" cx="760" cy="210" r="4"/>
<circle id="node008" cx="860" cy="150" r="4"/>
<circle id="node009" cx="960" cy="220" r="4"/>
<circle id="node010" cx="1080" cy="170" r="4"/>

<circle id="node011" cx="1180" cy="250" r="4"/>
<circle id="node012" cx="1280" cy="180" r="4"/>
<circle id="node013" cx="1380" cy="260" r="4"/>
<circle id="node014" cx="1480" cy="160" r="4"/>
<circle id="node015" cx="1580" cy="230" r="4"/>
<circle id="node016" cx="1680" cy="200" r="4"/>

<circle id="node017" cx="250" cy="380" r="4"/>
<circle id="node018" cx="360" cy="430" r="4"/>
<circle id="node019" cx="470" cy="360" r="4"/>
<circle id="node020" cx="600" cy="410" r="4"/>

<circle id="node021" cx="720" cy="330" r="4"/>
<circle id="node022" cx="820" cy="460" r="4"/>
<circle id="node023" cx="930" cy="360" r="4"/>
<circle id="node024" cx="1030" cy="430" r="4"/>
<circle id="node025" cx="1140" cy="360" r="4"/>

<circle id="node026" cx="1260" cy="420" r="4"/>
<circle id="node027" cx="1370" cy="340" r="4"/>
<circle id="node028" cx="1490" cy="430" r="4"/>
<circle id="node029" cx="1600" cy="360" r="4"/>
<circle id="node030" cx="1700" cy="450" r="4"/>

<circle id="node031" cx="300" cy="620" r="4"/>
<circle id="node032" cx="420" cy="540" r="4"/>
<circle id="node033" cx="540" cy="640" r="4"/>
<circle id="node034" cx="670" cy="560" r="4"/>

<circle id="node035" cx="790" cy="650" r="4"/>
<circle id="node036" cx="900" cy="560" r="4"/>
<circle id="node037" cx="1020" cy="650" r="4"/>
<circle id="node038" cx="1130" cy="570" r="4"/>

<circle id="node039" cx="1250" cy="640" r="4"/>
<circle id="node040" cx="1380" cy="560" r="4"/>
<circle id="node041" cx="1500" cy="640" r="4"/>
<circle id="node042" cx="1620" cy="560" r="4"/>

<circle id="node043" cx="340" cy="840" r="4"/>
<circle id="node044" cx="470" cy="770" r="4"/>
<circle id="node045" cx="610" cy="860" r="4"/>
<circle id="node046" cx="740" cy="760" r="4"/>

<circle id="node047" cx="880" cy="850" r="4"/>
<circle id="node048" cx="1010" cy="760" r="4"/>
<circle id="node049" cx="1150" cy="860" r="4"/>
<circle id="node050" cx="1290" cy="770" r="4"/>

</g>

</svg>
